Coordinates
version=1
nRows=16
nColumns=33
inDegrees=yes

Units are S.I. units (second, meters, Newtons, ...)
Angles are in degrees.

endheader
time	ground_thorax_rot_x	ground_thorax_rot_y	ground_thorax_rot_z	ground_thorax_tx	ground_thorax_ty	ground_thorax_tz	clav_prot_r	clav_elev_r	scapula_abduction_r	scapula_elevation_r	scapula_upward_rot_r	scapula_winging_r	shoulder_elv_r	plane_of_elev_r	axial_rot_r	elbow_flexion_r	pro_sup_r	wrist_flex_r	wrist_dev_r	clav_prot_l	clav_elev_l	scapula_abduction_l	scapula_elevation_l	scapula_upward_rot_l	scapula_winging_l	shoulder_elv_l	plane_of_elev_l	axial_rot_l	elbow_flexion_l	pro_sup_l	wrist_flex_l	wrist_dev_l
     12.60000000	     37.85840127	     11.10524053	     11.94673525	   -102.34603834	    776.15536247	      9.70431822	     11.32849522	     39.31629966	     45.00000000	     38.07281917	     -9.40363971	  -2973.43903237	  -4261.37275438	     28.97437574	     59.63489879	    730.62842571	   -331.22771589	     18.50970632	     10.34597369	      5.31424296	    -45.00000000	    -43.34798512	     45.00000000	    -27.42483706	    448.97553526	  -6771.87878599	     22.49454264	    -43.29273332	   -711.28265023	   -337.92682216	      8.06060742	    -19.36123447
     12.61000000	     38.12034219	     12.21979831	     13.67903365	   -104.47411889	    776.98752088	      9.42415913	     13.13403982	     40.20032838	     45.00000000	     39.12822138	    -13.48577636	  -2972.65067125	  -4261.14421306	     29.61831440	     57.59534578	    730.67253624	   -331.16845384	     18.51962151	     10.19440608	      6.00968401	    -45.00000000	    -41.33414383	     45.00000000	    -31.69610993	    448.36010516	  -6771.38306904	     22.91326631	    -42.79950727	   -711.33621274	   -339.25726635	      8.26457806	    -19.29230361
     12.62000000	     38.23899725	     11.90302816	     13.23311188	   -106.66644634	    777.88011038	      9.15598458	     12.34083974	     39.67603097	     45.00000000	     39.14843821	    -12.49623125	  -2972.78605653	  -4261.01118606	     29.34361106	     57.81661237	    730.78817016	   -331.02513409	     18.65499725	     10.33659611	      4.75041923	    -45.00000000	    -41.14277443	     45.00000000	    -31.17329394	    448.46602826	  -6771.27101700	     22.76049791	    -42.80453927	   -711.23200992	   -339.51023236	      8.10133061	    -19.35580973
     12.63000000	     38.32322492	     11.83912191	     13.03617117	   -108.93073013	    778.82931563	      8.89950603	     12.31149363	     39.81189350	     45.00000000	     39.27633566	    -12.33820738	  -2973.01688572	  -4260.91785342	     29.40946835	     57.97652467	    730.91770890	   -330.95933092	     18.69789482	     10.18119208	      5.05908537	    -45.00000000	    -41.28038729	     45.00000000	    -30.88590565	    448.82348838	  -6771.17579980	     22.75508203	    -42.89621037	   -711.13732669	   -339.74300744	      8.09807783	    -19.38927513
     12.64000000	     38.61970718	     12.79822203	     14.48375147	   -111.25999913	    779.82882065	      8.65584615	     13.95295421	     40.62641903	     45.00000000	     40.33490283	    -15.73087048	  -2972.30664810	  -4260.71600114	     29.89886005	     56.25459984	    730.93434574	   -331.11693388	     18.71014209	     10.07253619	      5.53577102	    -45.00000000	    -39.52591331	     45.00000000	    -34.41752270	    448.35712975	  -6770.70612206	     23.03149321	    -42.68368557	   -711.13374803	   -340.61308373	      8.15440888	    -19.35431337
     12.65000000	     38.73884413	     12.59420909	     14.08629918	   -113.64384269	    780.88022700	      8.42544457	     13.42148182	     41.05384850	     45.00000000	     40.50882979	    -15.39888214	  -2972.44090360	  -4260.62322372	     29.86310303	     56.48171566	    731.08642978	   -331.08500114	     18.72696998	      9.96495013	      5.23414655	    -45.00000000	    -39.73374002	     45.00000000	    -33.79889185	    448.64890613	  -6770.67215836	     22.92608464	    -42.65663756	   -711.06219528	   -340.87486729	      8.11783550	    -19.36370156
     12.66000000	     38.81510801	     12.43082257	     13.90526838	   -116.07772759	    781.97405209	      8.20892702	     13.02171237	     40.73975165	     45.00000000	     40.61393631	    -15.00894333	  -2972.55554290	  -4260.51027041	     29.79049457	     56.61228713	    731.17735252	   -331.09621419	     18.78951895	      9.97395274	      4.93580872	    -45.00000000	    -39.70822252	     45.00000000	    -33.34414794	    448.98164023	  -6770.63265135	     22.80236850	    -42.68238321	   -711.07800438	   -341.08265084	      8.01632308	    -19.37854398
     12.67000000	     38.94092014	     12.36895760	     13.76235211	   -118.56212778	    783.11015044	      8.00488352	     13.04091126	     40.79371262	     45.00000000	     40.81661463	    -15.01225717	  -2972.65576975	  -4260.37960970	     29.82517170	     56.55673002	    731.29426258	   -331.19093482	     18.84812481	      9.91367750	      4.95038792	    -45.00000000	    -39.61042611	     45.00000000	    -33.37607732	    449.19773804	  -6770.49288321	     22.78446319	    -42.76798707	   -710.95917999	   -341.31984230	      7.97544797	    -19.42358766
     12.68000000	     39.04225387	     12.38429066	     13.66333700	   -121.09154244	    784.28612165	      7.81200692	     13.01114677	     40.76097827	     45.00000000	     41.03069726	    -15.24586776	  -2972.72355241	  -4260.22352072	     29.83060297	     56.41449304	    731.32183297	   -331.33108083	     18.87235984	      9.84402782	      4.92345248	    -45.00000000	    -39.46272814	     45.00000000	    -33.54600884	    449.39385268	  -6770.32940082	     22.83088354	    -42.85596785	   -710.85751845	   -341.58093851	      7.96557769	    -19.46815109
     12.69000000	     39.24076388	     15.30088971	     17.33391759	   -123.67963406	    785.50352128	      7.62329675	     15.18031141	     41.69915207	     42.71751418	     43.41176736	    -22.23662521	  -2969.49204109	  -4259.31669250	     31.04084918	     52.68177241	    731.36322891	   -332.62583324	     18.85170446	      9.80986994	      5.55674086	    -45.00000000	    -36.59741449	     45.00000000	    -40.79673939	    448.62547799	  -6769.41816334	     23.17781134	    -42.68489011	   -710.90271693	   -342.91591504	      8.05182408	    -19.39612328
     12.70000000	     39.33723612	     15.48922030	     17.45628338	   -126.31057194	    786.76488996	      7.43738664	     14.99675997	     41.85608298	     42.42390758	     43.83124099	    -22.83288740	  -2969.38270581	  -4259.21040828	     31.31434283	     52.42888988	    731.39930665	   -332.99669883	     18.81402498	      9.70751697	      5.63948203	    -45.00000000	    -36.44178214	     45.00000000	    -41.17638958	    448.85023895	  -6769.27973305	     23.16216505	    -42.99912535	   -710.88304129	   -343.55645037	      8.04601357	    -19.37340715
     12.71000000	     39.44253708	     15.74301335	     17.69145630	   -128.97412189	    788.06192003	      7.25187316	     15.08522137	     42.00359841	     42.06143596	     44.32889617	    -23.62418910	  -2969.01584616	  -4258.94967928	     31.49703237	     51.94579347	    731.45105666	   -333.52553862	     18.81958508	      9.63915307	      5.73842800	    -45.00000000	    -36.14995805	     45.00000000	    -41.82660513	    449.01637766	  -6769.09556874	     23.15587799	    -43.15810410	   -710.85894537	   -344.24956229	      8.07908154	    -19.36240563
     12.72000000	     39.51471793	     16.05026719	     17.96264092	   -131.64116562	    789.38525445	      7.07002662	     15.17620960	     42.12606445	     41.71845119	     44.81821220	    -24.56730826	  -2968.65573725	  -4258.67925791	     31.67092018	     51.35570142	    731.53607880	   -334.11621920	     18.83265472	      9.58007204	      5.79725995	    -45.00000000	    -35.90129567	     45.00000000	    -42.54998318	    449.20027411	  -6768.83383993	     23.17284181	    -43.30854506	   -710.83096208	   -345.03656874	      8.12913478	    -19.34617067
     12.73000000	     39.69104783	     14.92285184	     16.42284186	   -134.30164725	    790.73275012	      6.89115359	     14.62275404	     42.79358251	     41.85069335	     44.55577845	    -22.78396747	  -2969.10345535	  -4258.74642101	     31.56902564	     51.43557065	    731.59292166	   -334.32280349	     18.83519604	      9.55141413	      5.56029536	    -45.00000000	    -36.98983429	     45.00000000	    -39.50412431	    449.76730700	  -6769.17839973	     22.79662180	    -43.65571026	   -710.82162581	   -345.39390367	      8.26967435	    -19.36109455
     12.74000000	     39.84089208	     15.13954625	     16.47225278	   -136.94213209	    792.09675132	      6.72017095	     14.61662910	     43.23620384	     41.64112089	     44.93769884	    -23.04949893	  -2969.08187167	  -4258.58074198	     31.54319233	     51.56448184	    731.72382855	   -334.66818359	     18.83797753	      9.31832010	      5.64901991	    -45.00000000	    -37.02956050	     45.00000000	    -39.95142802	    449.96265970	  -6768.98058039	     22.72595421	    -43.85877647	   -710.59919961	   -346.07292404	      8.35266201	    -19.38940627
     12.75000000	     39.63695035	     15.83471232	     17.58615370	   -139.56307643	    793.47912507	      6.55770180	     14.98680317	     42.01942675	     41.45625480	     45.00000000	    -25.19768697	  -2968.69917410	  -4257.89001894	     31.96780128	     50.25302344	    731.61602323	   -335.31773419	     18.90747913	      9.48469621	      5.84023436	    -45.00000000	    -35.99736244	     45.00000000	    -42.25363776	    450.13803267	  -6768.35174310	     23.05311192	    -43.63642542	   -710.80016336	   -347.31409240	      8.36599645	    -19.30282015
